# xmcd
#
# Track frame offsets: 
#        300
#        21868
#        37657
#        64955
#        82484
#        108578
#        130849
#        155362
#        176463
#        196854
#        215553
#        232888
#        254365
#        275620
#        295593
#        314264
#
# Disc length: 4495 seconds
#
# Revision: 0
# Processed by: cddbd v1.5.2PL0 Copyright (c) Steve Scherf et al.
# Submitted via: ExactAudioCopy v1.0b1
#
DISCID=e3118b10
DTITLE=Blues Company - Blues, Ballads and Assorted Love
DYEAR=1997
DGENRE=Blues Rock
TTITLE0=Red Blood
TTITLE1=Blues Is My Middle Name
TTITLE2=Silent Nite
TTITLE3=Hey Little Girl
TTITLE4=Cold Rain
TTITLE5=I Don't Know
TTITLE6=Crippled Mind
TTITLE7=Rattlesnake Blues
TTITLE8=I Just Can't Keep From Crying
TTITLE9=Uh Wee Baby
TTITLE10=Walk On
TTITLE11=She's Gone
TTITLE12=Fool
TTITLE13=Tell Me Why
TTITLE14=Blue and Lonesome
TTITLE15=The Blues Is Alright
EXTD=
EXTT0=
EXTT1=
EXTT2=
EXTT3=
EXTT4=
EXTT5=
EXTT6=
EXTT7=
EXTT8=
EXTT9=
EXTT10=
EXTT11=
EXTT12=
EXTT13=
EXTT14=
EXTT15=
PLAYORDER=
